<?xml version="1.0" standalone="no"?>
<!DOCTYPE svg PUBLIC "-//W3C//DTD SVG 20010904//EN"
 "http://www.w3.org/TR/2001/REC-SVG-20010904/DTD/svg10.dtd">
<svg version="1.0" xmlns="http://www.w3.org/2000/svg"
 width="512.000000pt" height="512.000000pt" viewBox="0 0 512.000000 512.000000"
 preserveAspectRatio="xMidYMid meet">

<g transform="translate(0.000000,512.000000) scale(0.100000,-0.100000)"
fill="#000000" stroke="none">
<path d="M377 5110 c-177 -30 -337 -194 -367 -376 -13 -80 -13 -4268 0 -4348
30 -187 189 -346 376 -376 80 -13 4268 -13 4348 0 187 30 346 189 376 376 13
80 13 4268 0 4348 -30 187 -189 346 -376 376 -72 12 -4287 11 -4357 0z m3698
-1286 c19 -8 77 -60 129 -114 l96 -99 0 -53 0 -53 -1022 -1023 c-563 -563
-1041 -1036 -1063 -1050 -35 -24 -50 -27 -120 -27 -65 0 -86 4 -115 22 -19 12
-288 275 -598 585 l-562 564 0 45 c0 35 7 56 29 85 43 58 174 182 207 194 71
27 66 32 569 -471 l470 -469 925 925 c509 509 938 932 955 940 39 19 59 19
100 -1z"/>
</g>
</svg>
