<?xml version="1.0" standalone="no"?>
<!DOCTYPE svg PUBLIC "-//W3C//DTD SVG 20010904//EN"
 "http://www.w3.org/TR/2001/REC-SVG-20010904/DTD/svg10.dtd">
<svg version="1.0" xmlns="http://www.w3.org/2000/svg"
 width="920.000000pt" height="920.000000pt" viewBox="0 0 920.000000 920.000000"
 preserveAspectRatio="xMidYMid meet">

<g transform="translate(0.000000,920.000000) scale(0.100000,-0.100000)"
fill="#000000" stroke="none">
<path d="M1545 9189 c-202 -21 -400 -80 -590 -174 -176 -88 -296 -176 -445
-325 -149 -148 -236 -268 -325 -445 -98 -195 -152 -383 -174 -604 -15 -144
-15 -5938 0 -6082 22 -221 76 -409 174 -604 89 -178 176 -297 325 -445 269
-269 524 -401 940 -488 67 -14 387 -16 3070 -19 2104 -3 3029 -1 3109 7 228
22 416 75 616 175 177 89 297 176 445 325 149 148 236 268 325 445 98 195 152
383 174 604 15 144 15 5938 0 6082 -22 219 -77 409 -174 604 -89 177 -176 297
-325 445 -148 149 -268 236 -445 325 -195 98 -383 152 -604 174 -125 13 -5973
13 -6096 0z m6069 -1154 c150 -39 299 -157 369 -291 73 -141 67 136 67 -3144
0 -3282 6 -3003 -68 -3144 -48 -93 -145 -190 -238 -238 -141 -74 138 -68
-3144 -68 -3282 0 -3003 -6 -3144 68 -93 48 -190 145 -238 238 -74 141 -68
-137 -68 3139 0 3273 -5 3010 68 3149 71 136 221 255 368 290 50 12 500 14
3014 15 2621 1 2962 -1 3014 -14z"/>
<path d="M6265 6372 c-155 -46 -104 0 -1237 -1131 l-1048 -1045 -442 440
c-396 393 -450 443 -508 471 -90 44 -174 63 -270 63 -376 0 -644 -347 -551
-712 27 -106 61 -167 135 -245 232 -245 1294 -1292 1338 -1320 161 -102 384
-108 571 -16 69 34 128 91 1353 1317 1194 1194 1283 1286 1317 1352 163 317
14 703 -313 815 -90 31 -261 36 -345 11z"/>
</g>
</svg>
