<svg aria-hidden="true" style="position:absolute;width:0;height:0;overflow:hidden" xmlns="http://www.w3.org/2000/svg"><defs><symbol id="icon-Frame1" viewBox="0 0 35 32"><path style="fill:var(--color1, #000)" d="M21.415 15.401 3.353 31.49a2.05 2.05 0 0 1-1.367.514 2.04 2.04 0 0 1-1.468-.608c-.771-.794-.67-2.036.217-2.713l19.119-14.541 1.561 1.26z"/><path fill="#3a81d6" style="fill:var(--color2, #3a81d6)" opacity=".8" d="m17.806 18.638-3.404 3.03-.314-3.114 1.863-1.417 1.855 1.5z"/><path style="fill:var(--color1, #000)" d="M35.039 10.634c0 5.874-5.065 10.638-11.308 10.638-3.935 0-7.401-1.89-9.426-4.76a10.143 10.143 0 0 1-1.882-5.878C12.423 4.76 17.488 0 23.731 0c2.819 0 5.395.969 7.373 2.571 2.409 1.952 3.935 4.84 3.935 8.063z"/><path fill="#fff" style="fill:var(--color3, #fff)" d="M23.731 18.919c4.866 0 8.81-3.709 8.81-8.285s-3.944-8.285-8.81-8.285-8.81 3.709-8.81 8.285c0 4.576 3.944 8.285 8.81 8.285z"/><path fill="#1a6fb5" style="fill:var(--color4, #1a6fb5)" opacity=".03" d="M35.039 10.634c0 5.874-5.065 10.638-11.308 10.638-3.935 0-7.401-1.89-9.426-4.76 12.752-.976 16.114-11.136 16.803-13.941 2.405 1.952 3.931 4.84 3.931 8.063z"/><path style="fill:var(--color1, #000)" d="M23.731 10.652c1.022 0 1.851-.779 1.851-1.741s-.829-1.741-1.851-1.741-1.851.779-1.851 1.741.825 1.741 1.851 1.741zm0 .871c-1.235 0-3.702.583-3.702 1.741v.437c0 .24.209.437.465.437h6.483c.256 0 .465-.197.465-.437v-.437c-.008-1.154-2.475-1.741-3.71-1.741z"/></symbol><symbol id="icon-Frame2" viewBox="0 0 25 32"><path style="fill:var(--color1, #000)" d="m24.951 9.969-.077 14.984-.013 2.898c-.013 2.303-2.358 4.161-5.244 4.149l-14.418-.06C2.319 31.922-.013 30.046 0 27.737L.09 9.855c.006-1.864 1.553-3.439 3.666-3.962l.006-.962v-.493l17.568.078-.006 1.455c2.107.547 3.633 2.129 3.627 3.998z"/><path style="fill:var(--color1, #000)" d="M22.638.667v.132l-.013 1.563-.013 1.533v.186c0 .289-.258.523-.567.523h-.135l-3.569-.024-.863-.012-4.516-.03-.85-.012-9.077-.06c-.309 0-.56-.241-.56-.529v-.138L2.501.708V.522c0-.289.258-.523.573-.523h.135l18.869.138c.316.006.561.24.561.529z"/><path style="fill:var(--color1, #000)" d="m22.638.806-.013 1.557-.013 1.533-.767-.006-1.952-.012h-1.024l-2.886-.018h-1.024l-2.886-.018h-1.024l-2.893-.018H7.138l-2.893-.018H3.227L2.473 3.8 2.499.709 4.29.715 8.2.739h.934l2.976.018h.934l2.976.018h.934l2.976.018h.934l1.772.012z"/><path fill="#f7f9fc" style="fill:var(--color5, #f7f9fc)" d="m24.932 13.133-24.861-.11-.052 10.288 24.861.11.052-10.288z"/><path fill="#fbfcf7" style="fill:var(--color6, #fbfcf7)" d="m24.936 13.133-24.861-.11-.009 1.852 24.861.11.009-1.852z"/><path style="fill:var(--color1, #000)" d="m9.766 17.16-1.604-.006.006-1.503-2.21-.006-.006 1.497-1.604-.006-.013 2.056 1.604.006-.006 1.503 2.21.006.006-1.497 1.604.006.013-2.056zM20.667 17.659l-7.95-.036c-.213 0-.387-.162-.387-.361v-.168c0-.198.174-.361.387-.361l7.95.036c.213 0 .387.162.387.361v.168c0 .198-.174.361-.387.361z"/><path style="fill:var(--color1, #000)" opacity=".5" d="m20.66 19.865-7.95-.036c-.213 0-.387-.162-.387-.361V19.3c0-.198.174-.361.387-.361l7.95.036c.213 0 .387.162.387.361v.168c0 .198-.174.361-.387.361z"/><path fill="#1a6fb5" style="fill:var(--color4, #1a6fb5)" opacity=".08" d="M2.474.667v.132l.013 1.563.013 1.527v.186c0 .289.258.523.567.523h.135l18.857-.126c.309 0 .56-.241.56-.529v-.138C12.653 4.208 3.035.137 3.035.137c-.309.006-.56.24-.56.529z"/></symbol><symbol id="icon-Frame3" viewBox="0 0 22 32"><path style="fill:var(--color1, #000)" d="M22.088 30.467c0 .835-.652 1.514-1.457 1.514l-18.841.022a1.466 1.466 0 0 1-1.382-1.022 1.537 1.537 0 0 1-.078-.486L.3 2.318C.3 1.483.952.804 1.757.804L20.598.782c.805 0 1.46.676 1.46 1.511l.03 28.174z"/><path fill="#fff" style="fill:var(--color3, #fff)" d="m20.135 30.305-17.852.02c-.434 0-.784-.363-.784-.813L1.472 3.29c0-.45.35-.813.784-.813l17.85-.02c.434 0 .784.363.784.813l.027 26.222a.795.795 0 0 1-.781.813z"/><path style="fill:var(--color1, #000)" d="m17.628 4.619-13.021.017a.799.799 0 0 1-.784-.81L3.82 1.575c0-.447.35-.813.781-.813L17.625.748c.431 0 .784.363.784.81l.003 2.251c-.003.447-.353.81-.784.81zM4.602 1.176a.391.391 0 0 0-.382.397l.003 2.251c0 .218.172.397.382.397l13.024-.014c.21 0 .382-.179.382-.397l-.003-2.251a.391.391 0 0 0-.382-.397l-13.024.014z"/><path style="fill:var(--color1, #000)" d="M17.259 1.723 5.1 1.737a.246.246 0 0 1-.242-.251V.266c0-.14.108-.251.242-.251L17.256.001c.135 0 .242.112.242.251v1.22a.241.241 0 0 1-.24.251z"/><path fill="#58d6f4" style="fill:var(--color7, #58d6f4)" d="m5.111 1.737 12.138-.014c.14 0 .253-.117.253-.263V.862L4.855.876v.598a.26.26 0 0 0 .256.263zM9.376 27.356l-1.05-6.591-.851 2.868-2.435.003c-.148 0-.267-.123-.267-.276s.119-.276.267-.276l2.044-.003 1.403-4.723 1.05 6.608 1.363-4.538.724 2.15 1.632-4.103 1.586 6.507.598-2.069 1.75-.003c.148 0 .267.123.267.276s-.119.276-.267.276l-1.355.003-1.037 3.589-1.664-6.826-1.554 3.902-.654-1.941-1.551 5.167z"/><path style="fill:var(--color1, #000)" d="m7.572 14.648-3.423.003c-.552 0-1.005-.466-1.005-1.039l-.005-4.963c0-.573.45-1.042 1.002-1.042l3.423-.003c.552 0 1.005.466 1.005 1.039l.005 4.963c0 .573-.45 1.039-1.002 1.042zM4.138 7.909c-.393 0-.711.332-.711.74l.005 4.963c0 .408.32.737.714.737l3.423-.003c.393 0 .711-.332.711-.74l-.005-4.963a.725.725 0 0 0-.714-.737l-3.423.003z"/><path style="fill:var(--color1, #000)" d="M5.857 13.696c1.619-.003 2.122-.972 2.122-.972a1.197 1.197 0 0 0-.288-.263c-.426-.288-.768-.411-.91-.533-.145-.12-.226-.296-.226-.296l-.089.056s-.054-.193-.024-.486c0 0 .127-.034.221-.478.151.031.329-.366.245-.511-.054-.095-.119-.087-.164-.064.046-.198.253-1.296-.889-1.296s-.934 1.098-.886 1.296c-.046-.022-.11-.031-.164.064-.083.145.097.542.248.511.094.444.224.475.224.475.032.29-.024.486-.024.486l-.089-.056s-.081.173-.226.296-.485.249-.91.536a1.142 1.142 0 0 0-.288.263c-.003.006.504.975 2.119.972zM16.516 9.188l-6.59.008a.227.227 0 0 1-.224-.232v-.039c0-.128.1-.232.224-.232l6.59-.008c.124 0 .224.103.224.232v.039a.23.23 0 0 1-.224.232zM14.092 10.49l-4.166.006a.227.227 0 0 1-.224-.232v-.039c0-.128.1-.232.224-.232l4.166-.006c.124 0 .224.103.224.232v.039c0 .128-.1.232-.224.232z"/><path style="fill:var(--color1, #000)" opacity=".6" d="m18.789 12.037-8.86.011a.227.227 0 0 1-.224-.232v-.039c0-.128.1-.232.224-.232l8.86-.011c.124 0 .224.103.224.232v.039c-.003.128-.102.232-.224.232zM18.597 16.385l-14.78.017a.236.236 0 0 1-.232-.24v-.022c0-.131.102-.24.232-.24l14.78-.017c.127 0 .232.106.232.24v.022c0 .134-.105.24-.232.24zM18.789 13.556l-8.86.011a.227.227 0 0 1-.224-.232v-.039c0-.128.1-.232.224-.232l8.86-.011c.124 0 .224.103.224.232v.039c0 .128-.1.232-.224.232z"/></symbol><symbol id="icon-Frame4" viewBox="0 0 22 32"><path style="fill:var(--color1, #000)" d="M21.416 0H1.07a.766.766 0 0 0-.757.775v30.453c0 .428.338.775.757.775h20.346a.766.766 0 0 0 .757-.775V.775A.77.77 0 0 0 21.416 0z"/><path fill="#fff" style="fill:var(--color3, #fff)" d="M20.08 1.38H2.402a.748.748 0 0 0-.737.757v25.178c0 .418.331.754.737.754H20.08a.746.746 0 0 0 .737-.754V2.137a.746.746 0 0 0-.737-.757z"/><path style="fill:var(--color1, #000)" d="M14.856 13.351H7.63a.606.606 0 0 1-.599-.613V5.336c0-.339.268-.613.599-.613h7.226c.331 0 .599.275.599.613v7.399a.608.608 0 0 1-.599.616z"/><path fill="#fff" style="fill:var(--color3, #fff)" d="M11.243 31.174c.614 0 1.113-.51 1.113-1.139s-.498-1.139-1.113-1.139c-.614 0-1.113.51-1.113 1.139s.498 1.139 1.113 1.139z"/><path style="fill:var(--color1, #000)" d="M17.539 17.184H4.943c-.318 0-.579-.267-.579-.593s.261-.593.579-.593h12.594c.318 0 .579.267.579.593s-.258.593-.576.593z"/><path style="fill:var(--color1, #000)" opacity=".6" d="M15.407 20.468H4.733a.37.37 0 0 1-.366-.375v-.041a.37.37 0 0 1 .366-.375h10.674a.37.37 0 0 1 .366.375v.041a.37.37 0 0 1-.366.375z"/><path style="fill:var(--color1, #000)" opacity=".3" d="M13.375 22.554H4.698a.339.339 0 0 1-.333-.341V22.1c0-.187.15-.341.333-.341h8.675c.183 0 .333.154.333.341v.113c0 .187-.15.341-.331.341z"/><path style="fill:var(--color1, #000)" opacity=".6" d="M14.467 24.486h-9.75a.356.356 0 0 1-.351-.359v-.072c0-.198.158-.359.351-.359h9.75c.193 0 .351.162.351.359v.072a.358.358 0 0 1-.351.359z"/><path fill="#fff" style="fill:var(--color3, #fff)" d="M11.264 8.799c.724 0 1.31-.609 1.31-1.359s-.586-1.359-1.31-1.359c-.724 0-1.31.609-1.31 1.359s.584 1.359 1.31 1.359zm0 .679c-.874 0-2.62.455-2.62 1.359v.341c0 .188.148.341.329.341h4.588a.336.336 0 0 0 .329-.341v-.341c-.005-.901-1.751-1.359-2.626-1.359z"/></symbol><symbol id="icon-Frame5" viewBox="0 0 38 32"><path style="fill:var(--color1, #000)" d="M31.655 6.227H6.314v25.385h25.341V6.227zM6.209 6.227c.031 0 .061.012.105.024V31.6c-1.962.143-3.618-.318-4.933-1.501C.45 29.259 0 28.272 0 27.155V15.292c0-1.509-.004-3.018-.004-4.527 0-1.823 1.053-3.148 2.989-4.045.996-.457 2.102-.526 3.225-.493z"/><path fill="#fff" style="fill:var(--color3, #fff)" d="M27.229 6.223h2.372v25.381H8.367V6.231h2.521v-.265c0-.909.004-1.823-.004-2.732-.009-.636.175-1.191.708-1.623a2.016 2.016 0 0 1 1.298-.457c1.516-.004 3.028-.004 4.544-.004 2.547 0 5.099.004 7.646 0 .669 0 1.223.204 1.66.677.349.379.481.824.481 1.321-.004.958 0 1.917 0 2.875-.004.053 0 .114.009.2zm-13.606 0h3.884c2.255 0 4.513 0 6.768.004.179 0 .218-.053.218-.212-.009-.714 0-1.427 0-2.141 0-.057-.009-.114-.017-.175H13.623v2.524z"/><path style="fill:var(--color1, #000)" d="M27.665 0H10v6.231h17.665V0zM38.095 10.701c0-1.68-.983-2.932-2.731-3.841-1.075-.559-2.294-.665-3.543-.64-.192.004-.166.098-.166.196v8.804c0 5.159 0 10.313-.004 15.472v.918c.787.024 1.534.029 2.268-.135 2.482-.546 4.173-2.271 4.173-4.306.009-5.485.004-10.978.004-16.467zM21.055 20.793v3.221c0 .338-.183.518-.542.518-.987.004-1.975.004-2.962 0-.328 0-.511-.192-.511-.514v-3.226h-3.413c-.424 0-.599-.159-.599-.555v-2.63c0-.4.17-.559.594-.559h3.412V13.843c0-.375.179-.538.581-.538h2.818c.441 0 .612.155.612.575.004 1.003 0 2.002 0 3.005v.167h.188c1.084 0 2.167 0 3.251.004.398 0 .568.163.568.534v2.643c0 .404-.166.559-.59.559-1.079 0-2.158 0-3.233.004-.044-.004-.096-.004-.175-.004z"/></symbol><symbol id="icon-Group" viewBox="0 0 22 32"><path style="fill:var(--color1, #000)" d="M22.2 1.437v28.798c0 .795-.616 1.437-1.378 1.437H1.379c-.762-.005-1.378-.647-1.378-1.437V1.437C.001.642.617 0 1.379 0h19.448c.757 0 1.373.642 1.373 1.437z"/><path style="fill:var(--color1, #000)" d="M20.786 2.649v26.369c0 .728-.541 1.316-1.211 1.316H2.491c-.67-.005-1.211-.593-1.211-1.316V2.649c0-.728.541-1.316 1.211-1.316H19.58c.665 0 1.207.588 1.207 1.316z"/><path style="fill:var(--color1, #000)" d="M8.593 6.084v1.31a.163.163 0 0 1-.162.168h-1.54a.163.163 0 0 0-.162.168v1.605a.163.163 0 0 1-.162.168H5.31a.163.163 0 0 1-.162-.168V7.73a.163.163 0 0 0-.162-.168H3.451a.163.163 0 0 1-.162-.168v-1.31c0-.095.071-.168.162-.168h1.54a.163.163 0 0 0 .162-.168V4.143c0-.095.071-.168.162-.168h1.257c.091 0 .162.074.162.168v1.605c0 .095.071.168.162.168h1.535c.091 0 .162.074.162.168z"/><path style="fill:var(--color1, #000)" opacity=".5" d="M18.731 13.226H3.468a.185.185 0 0 1-.182-.189v-.605c0-.105.081-.189.182-.189h15.263c.101 0 .182.084.182.189v.605c-.005.105-.081.189-.182.189z"/><path style="fill:var(--color1, #000)" d="M18.731 5.684h-7.573a.185.185 0 0 1-.182-.189v-.6c0-.105.081-.189.182-.189h7.573c.101 0 .182.084.182.189V5.5c-.005.1-.081.184-.182.184z"/><path style="fill:var(--color1, #000)" opacity=".5" d="M16.49 8.242h-5.332a.185.185 0 0 1-.182-.189v-.605c0-.105.081-.189.182-.189h5.332c.101 0 .182.084.182.189v.605c-.005.105-.081.189-.182.189zM18.731 16.099H3.468a.185.185 0 0 1-.182-.189v-.605c0-.105.081-.189.182-.189h15.263c.101 0 .182.084.182.189v.605c-.005.105-.081.189-.182.189zM18.731 18.973H3.468a.185.185 0 0 1-.182-.189v-.605c0-.105.081-.189.182-.189h15.263c.101 0 .182.084.182.189v.61c-.005.1-.081.184-.182.184zM18.731 21.851H3.468a.185.185 0 0 1-.182-.189v-.605c0-.105.081-.189.182-.189h15.263c.101 0 .182.084.182.189v.605c-.005.105-.081.189-.182.189zM18.731 24.725H3.468a.185.185 0 0 1-.182-.189v-.605c0-.105.081-.189.182-.189h15.263c.101 0 .182.084.182.189v.605c-.005.105-.081.189-.182.189zM18.731 27.598H3.468a.185.185 0 0 1-.182-.189v-.605c0-.105.081-.189.182-.189h15.263c.101 0 .182.084.182.189v.605c-.005.105-.081.189-.182.189z"/><path fill="#1a6fb5" style="fill:var(--color4, #1a6fb5)" opacity=".04" d="M22.2 1.437v28.798c0 .795-.616 1.437-1.378 1.437H1.379c-.762-.005-1.378-.647-1.378-1.437v-.5C11.861 24.63 17.384 5.052 18.631 0h2.191c.762 0 1.378.642 1.378 1.437z"/></symbol><symbol id="icon-clouse" viewBox="0 0 32 32"><path d="M4.292 5.708a1 1 0 1 1 1.416-1.416L16 14.586 26.292 4.292a1 1 0 1 1 1.416 1.416L17.414 16l10.294 10.292a1 1 0 1 1-1.416 1.416L16 17.414 5.708 27.708a1 1 0 1 1-1.416-1.416L14.586 16z"/></symbol><symbol id="icon-open" viewBox="0 0 32 32"><path d="M5 24a1 1 0 0 1 1-1h20a1 1 0 0 1 0 2H6a1 1 0 0 1-1-1zm0-8a1 1 0 0 1 1-1h20a1 1 0 0 1 0 2H6a1 1 0 0 1-1-1zm0-8a1 1 0 0 1 1-1h20a1 1 0 0 1 0 2H6a1 1 0 0 1-1-1z"/></symbol></defs></svg>