<svg aria-hidden="true" style="position: absolute; width: 0; height: 0; overflow: hidden;" version="1.1" xmlns="http://www.w3.org/2000/svg" xmlns:xlink="http://www.w3.org/1999/xlink">
<defs>
<symbol id="icon-guarantee1" viewBox="0 0 32 32" fill="#458ff6">
<path d="M14.2 1.038c-3.275 0.525-6.075 2.219-8.044 4.875-2.888 3.888-3.15 9.194-0.662 13.45 0.219 0.375 0.838 1.231 1.325 1.837l0.138 0.163-1.2 3.525c-0.656 1.931-1.194 3.563-1.194 3.613 0 0.056 0.044 0.163 0.1 0.238 0.219 0.313 0.344 0.244 2.65-1.387 1.188-0.837 2.162-1.519 2.169-1.512s0.369 1.15 0.8 2.544c0.475 1.531 0.825 2.556 0.887 2.606 0.137 0.1 0.488 0.1 0.569-0.006 0.050-0.056 2.013-5.75 2.013-5.825 0-0.006 0.262 0.031 0.581 0.075 0.744 0.113 2.594 0.113 3.344 0 0.313-0.044 0.575-0.081 0.575-0.075 0 0.075 1.962 5.769 2.012 5.825 0.081 0.106 0.431 0.106 0.569 0.006 0.063-0.050 0.413-1.081 0.887-2.606 0.431-1.394 0.788-2.538 0.8-2.544 0.006-0.006 0.981 0.675 2.169 1.512 2.306 1.631 2.431 1.7 2.65 1.387 0.056-0.075 0.1-0.181 0.1-0.238 0-0.050-0.538-1.681-1.194-3.613l-1.2-3.525 0.137-0.163c0.481-0.6 1.106-1.456 1.313-1.813 1.163-2.006 1.7-3.988 1.7-6.262 0-1.181-0.106-2.063-0.387-3.125-1.031-3.938-4.081-7.181-7.944-8.463-1.306-0.438-2.031-0.55-3.644-0.575-1.063-0.012-1.588 0.006-2.019 0.075zM16.85 1.75c1.5 0.125 2.75 0.462 4.087 1.1 2.281 1.094 4.131 2.919 5.281 5.213 2.544 5.075 0.887 11.331-3.837 14.506-1.688 1.137-3.475 1.756-5.563 1.938-3.469 0.306-7.219-1.262-9.481-3.956-3.356-4.006-3.669-9.512-0.781-13.806 1.906-2.837 5.088-4.706 8.488-4.987 0.894-0.075 0.925-0.075 1.806-0.006zM8.581 22.819c1.044 0.806 2.363 1.506 3.606 1.913 0.394 0.125 0.731 0.238 0.744 0.25 0.012 0.006-0.306 1-0.719 2.2-0.406 1.206-0.75 2.175-0.769 2.156-0.019-0.012-0.331-1.006-0.7-2.2-0.706-2.256-0.781-2.431-1.088-2.369-0.069 0.012-0.969 0.619-1.994 1.35-1.025 0.725-1.875 1.313-1.888 1.3s0.388-1.238 0.888-2.719l0.919-2.694 0.256 0.219c0.138 0.119 0.475 0.387 0.744 0.594zM25.337 24.719c0.5 1.475 0.9 2.688 0.887 2.7-0.006 0.012-0.869-0.587-1.919-1.325-1.044-0.738-1.944-1.344-2-1.344-0.281 0-0.363 0.188-1.050 2.387-0.369 1.194-0.681 2.188-0.7 2.2-0.019 0.019-0.363-0.95-0.769-2.156-0.413-1.2-0.731-2.194-0.719-2.2 0.012-0.012 0.363-0.131 0.775-0.262 1.394-0.45 2.944-1.325 4.131-2.337 0.238-0.206 0.438-0.363 0.444-0.356s0.419 1.219 0.919 2.694z"></path>
<path d="M15.206 3.131c-3.931 0.3-7.375 2.95-8.662 6.662-0.213 0.606-0.425 1.488-0.513 2.113-0.031 0.231-0.106 0.4-0.306 0.656-0.394 0.506-0.431 0.6-0.4 0.994 0.031 0.325 0.050 0.363 0.375 0.662 0.344 0.313 0.344 0.313 0.481 0.956 0.806 3.769 3.594 6.681 7.344 7.675 0.613 0.163 0.619 0.163 0.781 0.038 0.188-0.137 0.238-0.369 0.113-0.531-0.050-0.069-0.313-0.175-0.669-0.269-3.112-0.825-5.525-3.056-6.494-6.006-0.3-0.919-0.3-0.875 0.044-0.912 0.244-0.025 0.362 0 0.669 0.15 0.206 0.1 0.544 0.213 0.75 0.256 0.356 0.069 0.781 0.294 0.969 0.519 0.075 0.094 0.069 0.137-0.044 0.337-0.306 0.531-0.238 1.050 0.181 1.406 0.144 0.125 0.356 0.244 0.475 0.262 0.162 0.031 0.231 0.087 0.294 0.238 0.156 0.363 0.675 0.725 1.037 0.725 0.081 0 0.225 0.1 0.35 0.244 0.275 0.325 0.675 0.481 1.012 0.4 0.231-0.063 0.262-0.050 0.419 0.113 0.094 0.1 0.294 0.225 0.444 0.281 0.231 0.094 0.325 0.094 0.588 0.038l0.313-0.075 0.4 0.281c0.525 0.375 0.906 0.538 1.275 0.544 0.394 0 0.663-0.144 0.869-0.469 0.163-0.256 0.181-0.262 0.462-0.244 0.481 0.031 0.962-0.294 1.163-0.775 0.063-0.15 0.137-0.2 0.4-0.262 0.425-0.1 0.731-0.344 0.925-0.744 0.144-0.3 0.181-0.331 0.462-0.4 0.6-0.144 0.975-0.65 0.975-1.325 0-0.394 0-0.394 0.225-0.5 0.119-0.063 0.35-0.231 0.512-0.381 0.231-0.213 0.444-0.325 0.981-0.519 0.644-0.238 0.694-0.244 0.831-0.156 0.081 0.056 0.288 0.1 0.456 0.1 0.35 0.006 0.35-0.044 0.050 0.869-0.769 2.337-2.506 4.3-4.775 5.387-0.525 0.25-1.525 0.594-2.031 0.688-0.3 0.063-0.438 0.2-0.438 0.444 0 0.156 0.044 0.238 0.156 0.313 0.15 0.1 0.194 0.094 0.813-0.063 3.75-0.975 6.556-3.906 7.344-7.675 0.131-0.613 0.15-0.656 0.413-0.9 0.563-0.531 0.55-0.988-0.069-1.725-0.094-0.113-0.15-0.287-0.181-0.563-0.175-1.569-0.831-3.281-1.769-4.644-0.5-0.719-1.85-2.044-2.581-2.525-1.106-0.731-2.425-1.281-3.656-1.531-0.406-0.081-1.975-0.244-2.094-0.212-0.019 0-0.319 0.025-0.669 0.056zM17.594 4.037c0.313 0.050 0.887 0.206 1.288 0.338 1.444 0.481 2.531 1.15 3.619 2.244 0.781 0.787 1.313 1.512 1.769 2.412 0.319 0.644 0.806 2.031 0.706 2.031-0.012 0-0.631-0.762-1.375-1.688-0.744-0.931-1.444-1.75-1.556-1.813-0.225-0.138-0.663-0.162-0.875-0.050-0.075 0.037-0.406 0.287-0.744 0.556-0.488 0.4-0.619 0.544-0.712 0.775-0.087 0.231-0.094 0.331-0.044 0.5l0.069 0.219-0.413 0.125c-0.75 0.219-1.275 0.262-2.231 0.181-0.981-0.081-1.231-0.044-2.144 0.325-0.662 0.269-0.994 0.238-2.019-0.181-0.644-0.262-0.769-0.331-0.75-0.431 0.012-0.063 0.031-0.287 0.031-0.494 0.006-0.306-0.019-0.419-0.119-0.531-0.262-0.294-1.344-1.106-1.531-1.15-0.275-0.063-0.594 0.013-0.794 0.181-0.094 0.081-0.738 0.856-1.425 1.719s-1.256 1.544-1.269 1.519c-0.031-0.1 0.313-1.050 0.588-1.637 1.4-2.956 4.256-4.938 7.619-5.275 0.45-0.044 1.738 0.025 2.313 0.125zM10.956 8.631l0.55 0.438-0.113 0.175c-0.262 0.406-4.106 5.131-4.169 5.131-0.131 0-1.169-0.881-1.125-0.956 0.138-0.238 4.181-5.231 4.237-5.231 0.037 0 0.319 0.2 0.619 0.444zM23.725 10.813c1.131 1.412 2.063 2.613 2.069 2.675 0.012 0.069-0.163 0.25-0.481 0.5-0.275 0.213-0.538 0.406-0.581 0.425-0.094 0.031-4.262-5.113-4.262-5.262 0-0.1 0.975-0.894 1.1-0.9 0.063 0 0.938 1.037 2.156 2.563zM21.919 12.325l1.637 2.037-0.644 0.231c-0.481 0.169-0.706 0.287-0.856 0.45-0.231 0.231-0.494 0.412-0.756 0.512-0.15 0.056-0.238 0.006-1.188-0.75-1.244-0.994-1.894-1.431-2.637-1.775-0.725-0.344-1.113-0.431-1.713-0.387-0.531 0.031-0.813 0.137-1.569 0.594-0.688 0.406-1.2 0.425-1.294 0.050-0.037-0.15 0.106-0.344 1.181-1.625 0.269-0.325 0.838-0.631 1.669-0.912 0.369-0.125 0.469-0.131 1.156-0.088 1.25 0.088 1.944 0.025 2.75-0.25 0.244-0.081 0.475-0.144 0.525-0.137 0.050 0 0.831 0.925 1.738 2.050zM13.175 10.963l0.325 0.113-0.356 0.45c-0.2 0.25-0.506 0.631-0.688 0.838-0.5 0.588-0.506 1.162-0.025 1.644 0.45 0.45 1.15 0.481 1.869 0.081 1.044-0.588 1.194-0.65 1.619-0.65 0.925 0 1.794 0.481 3.9 2.162 0.725 0.581 1.050 0.881 1.081 0.994 0.087 0.337-0.269 0.719-0.594 0.637-0.087-0.025-0.55-0.325-1.025-0.669-0.55-0.4-0.919-0.625-1.019-0.625-0.212 0-0.387 0.169-0.387 0.375 0 0.2 0.137 0.331 1.019 0.962 0.538 0.394 0.669 0.519 0.669 0.637 0 0.244-0.262 0.462-0.544 0.462-0.206 0-0.363-0.087-1.019-0.563-0.438-0.319-0.837-0.563-0.919-0.563-0.188 0-0.394 0.206-0.394 0.394 0 0.175 0.169 0.337 0.925 0.881 0.313 0.231 0.575 0.456 0.575 0.5 0 0.038-0.044 0.137-0.1 0.212-0.175 0.256-0.438 0.188-1.1-0.3-0.356-0.256-0.663-0.438-0.756-0.438-0.156 0-0.338 0.156-0.356 0.313-0.037 0.238 0.025 0.331 0.406 0.606 0.231 0.169 0.406 0.337 0.406 0.4 0 0.169-0.181 0.319-0.337 0.269-0.212-0.063-0.675-0.331-0.894-0.512l-0.2-0.169 0.313-0.55c0.381-0.656 0.431-0.913 0.256-1.313-0.188-0.419-0.544-0.637-1.037-0.637-0.325-0.006-0.419-0.031-0.656-0.206-0.169-0.125-0.381-0.212-0.563-0.238-0.238-0.031-0.313-0.075-0.425-0.244-0.131-0.2-0.581-0.469-0.781-0.469-0.056 0-0.113-0.069-0.137-0.144-0.1-0.394-0.588-0.731-1.069-0.731-0.338 0-0.581 0.113-0.8 0.375l-0.162 0.188-0.4-0.275c-0.294-0.213-0.506-0.306-0.838-0.375-0.25-0.050-0.519-0.131-0.606-0.175l-0.156-0.081 1.694-2.1 1.688-2.106 0.637 0.269c0.344 0.144 0.781 0.313 0.963 0.369zM11.438 15.819c0.075 0.137 0.044 0.213-0.369 0.919-0.294 0.494-0.363 0.575-0.506 0.575-0.175 0-0.313-0.1-0.313-0.238 0-0.113 0.669-1.275 0.787-1.363 0.119-0.094 0.325-0.044 0.4 0.106zM12.469 16.663c0.137 0.137 0.088 0.313-0.231 0.863-0.306 0.519-0.475 0.725-0.6 0.725-0.113 0-0.325-0.181-0.325-0.269 0-0.069 0.494-0.944 0.7-1.25 0.137-0.194 0.306-0.219 0.456-0.069zM13.631 17.313c0.181 0.1 0.144 0.281-0.144 0.806-0.15 0.262-0.294 0.531-0.331 0.594-0.088 0.163-0.381 0.262-0.5 0.163-0.156-0.131-0.106-0.294 0.256-0.925 0.419-0.725 0.469-0.769 0.719-0.637zM15.025 17.788c0.056 0.050 0.1 0.125 0.1 0.169 0 0.1-0.669 1.262-0.775 1.35-0.119 0.1-0.331 0.038-0.412-0.125-0.056-0.094-0.012-0.219 0.225-0.631 0.419-0.725 0.519-0.863 0.65-0.863 0.063 0 0.162 0.044 0.213 0.1z"></path>
<path d="M15.731 22.488c-0.125 0.137-0.137 0.469-0.025 0.563 0.213 0.175 0.631 0.163 0.819-0.025 0.137-0.131 0.125-0.419-0.012-0.544-0.163-0.15-0.65-0.144-0.781 0.006z"></path>
</symbol>
<symbol id="icon-qualified2" viewBox="0 0 32 32" fill="#458ff6">
<path d="M14.906 0.119c-0.856 0.188-1.725 0.65-2.381 1.275-0.3 0.281-0.65 0.694-0.819 0.956-0.156 0.256-0.313 0.462-0.338 0.462s-0.225-0.050-0.444-0.106c-0.544-0.144-1.744-0.144-2.331 0.006-1.925 0.494-3.419 2.031-3.806 3.925-0.125 0.588-0.125 1.581-0.013 2.069 0.063 0.269 0.069 0.369 0.013 0.387-0.037 0.012-0.35 0.031-0.694 0.044-0.544 0.019-0.681 0.050-1.031 0.213-0.875 0.412-1.438 1.188-1.563 2.15-0.075 0.581-0.075 4.175-0.006 4.8 0.113 0.944 0.694 1.75 1.556 2.156 0.362 0.169 0.5 0.2 1.044 0.219 0.344 0.012 0.656 0.031 0.694 0.044 0.056 0.019 0.050 0.119-0.013 0.387-0.050 0.2-0.088 0.656-0.088 1.019 0 0.788 0.15 1.469 0.475 2.181l0.225 0.488-0.287 0.663c-0.313 0.712-0.325 0.906-0.081 1.075 0.313 0.219 0.606 0.056 0.831-0.456 0.088-0.194 0.169-0.363 0.181-0.375 0.019-0.019 0.175 0.094 0.356 0.25 0.944 0.794 1.919 1.194 3.113 1.275 0.481 0.038 1.269-0.050 1.787-0.2 0.113-0.031 0.169 0.025 0.344 0.325 0.256 0.456 1.012 1.25 1.481 1.563 0.194 0.131 0.363 0.244 0.369 0.244 0.044 0.019-1.637 3.706-1.738 3.813-0.094 0.094-0.15 0.106-0.281 0.063-0.15-0.056-0.287-0.325-1.088-2.113-0.506-1.131-0.969-2.106-1.019-2.175-0.063-0.069-0.188-0.119-0.3-0.119-0.106 0-1.144 0.306-2.306 0.688-1.162 0.375-2.138 0.688-2.175 0.688-0.112 0-0.263-0.188-0.263-0.337 0-0.081 0.125-0.419 0.281-0.762 0.156-0.337 0.281-0.681 0.281-0.762 0-0.188-0.269-0.45-0.456-0.45-0.256 0-0.406 0.188-0.731 0.938-0.394 0.9-0.419 1.25-0.125 1.712 0.244 0.381 0.744 0.637 1.15 0.581 0.144-0.019 1.112-0.319 2.15-0.656l1.894-0.625 0.081 0.169c0.050 0.087 0.387 0.837 0.756 1.663 0.85 1.906 0.925 2.044 1.15 2.238 0.519 0.431 1.394 0.35 1.781-0.169 0.081-0.106 0.519-1.038 0.975-2.069s0.831-1.881 0.844-1.894c0.006-0.012 0.194 0.031 0.412 0.087 0.55 0.156 1.931 0.156 2.469 0.006 0.212-0.056 0.4-0.106 0.413-0.106s0.4 0.863 0.863 1.919c0.65 1.475 0.894 1.969 1.069 2.144 0.519 0.525 1.444 0.463 1.881-0.125 0.063-0.087 0.462-0.938 0.894-1.894 0.425-0.956 0.806-1.788 0.837-1.85 0.063-0.106 0.188-0.075 1.956 0.512 2.087 0.688 2.381 0.738 2.831 0.506 0.144-0.075 0.337-0.256 0.456-0.438 0.2-0.288 0.212-0.331 0.188-0.712-0.025-0.363-0.137-0.644-1.012-2.613l-0.988-2.212 0.225-0.494c0.325-0.712 0.475-1.394 0.475-2.181 0-0.363-0.038-0.819-0.087-1.019-0.063-0.269-0.069-0.369-0.012-0.387 0.038-0.012 0.35-0.031 0.694-0.044 0.544-0.019 0.681-0.050 1.044-0.219 0.863-0.406 1.444-1.212 1.556-2.156 0.069-0.625 0.069-4.219-0.006-4.8-0.125-0.956-0.688-1.738-1.55-2.144-0.369-0.169-0.506-0.2-1.106-0.231-0.375-0.019-0.681-0.050-0.675-0.081 0.181-0.869 0.181-2.019-0.006-2.7-0.137-0.494-0.531-1.294-0.831-1.688-0.206-0.263-0.275-0.313-0.481-0.331-0.506-0.044-0.631 0.394-0.256 0.912 0.288 0.4 0.563 1.013 0.694 1.513 0.125 0.487 0.094 1.7-0.050 2.094l-0.094 0.25-1.1 0.019-1.094 0.012-0.363-0.512c-0.469-0.669-1.356-1.588-2.012-2.081-3.175-2.381-7.406-2.5-10.725-0.3-0.769 0.506-1.925 1.638-2.444 2.381l-0.356 0.512-1.094-0.012-1.1-0.019-0.094-0.25c-0.125-0.344-0.169-1.5-0.081-1.987 0.044-0.213 0.206-0.656 0.362-0.981 0.244-0.506 0.362-0.675 0.825-1.125 0.894-0.881 1.719-1.225 2.944-1.212 0.619 0.006 0.794 0.031 1.281 0.194 0.769 0.25 0.831 0.225 1.169-0.469 0.213-0.444 0.363-0.644 0.8-1.075 0.875-0.875 1.7-1.219 2.938-1.219 0.825 0 1.381 0.137 2.050 0.512 0.738 0.406 1.506 1.262 1.8 2.013 0.169 0.431 0.344 0.469 1.050 0.237 0.506-0.169 0.65-0.188 1.319-0.188 0.644 0 0.819 0.025 1.25 0.163 0.587 0.194 0.788 0.206 0.925 0.056 0.325-0.356 0.125-0.688-0.563-0.919-0.894-0.3-1.856-0.344-2.819-0.119-0.219 0.050-0.4 0.087-0.413 0.087-0.006 0-0.15-0.206-0.306-0.462-0.169-0.269-0.519-0.675-0.825-0.962-0.419-0.4-0.656-0.563-1.169-0.813-0.825-0.406-1.225-0.512-2.113-0.544-0.563-0.025-0.844-0.006-1.281 0.087zM17.438 5.731c1.581 0.263 3.119 1.038 4.319 2.188 0.45 0.431 0.994 1.069 0.994 1.163 0 0.025-3.038 0.044-6.75 0.044s-6.75-0.019-6.75-0.044c0-0.094 0.544-0.731 0.994-1.162 1.944-1.856 4.506-2.638 7.194-2.188zM28.45 10.162c0.394 0.131 0.762 0.463 0.956 0.863l0.163 0.331-0.038 5.25-0.188 0.3c-0.219 0.356-0.625 0.688-0.956 0.781-0.156 0.044-4.225 0.063-12.456 0.063h-12.219l-0.325-0.163c-0.362-0.181-0.663-0.494-0.831-0.863-0.106-0.238-0.119-0.462-0.119-2.825v-2.563l0.163-0.325c0.181-0.363 0.569-0.719 0.938-0.85 0.206-0.075 2.038-0.094 12.438-0.094 10.869-0.006 12.219 0.006 12.475 0.094zM8.469 19.275c0.806 1.137 2.125 2.269 3.412 2.913 2.537 1.281 5.7 1.281 8.237 0 1.288-0.65 2.675-1.844 3.469-2.988l0.363-0.512 1.094 0.012 1.1 0.019 0.1 0.25c0.069 0.181 0.094 0.488 0.094 1.156 0 0.863-0.006 0.931-0.188 1.406-0.212 0.55-0.387 0.856-0.731 1.269-1.031 1.225-2.8 1.794-4.262 1.363-0.169-0.050-0.425-0.131-0.569-0.169-0.438-0.131-0.55-0.063-0.85 0.556-0.212 0.444-0.363 0.644-0.8 1.075-0.569 0.569-0.981 0.825-1.719 1.075-0.369 0.119-0.563 0.144-1.219 0.144-0.887-0.006-1.256-0.087-1.969-0.456-0.669-0.35-1.431-1.137-1.769-1.837-0.3-0.619-0.412-0.688-0.85-0.556-0.144 0.038-0.394 0.119-0.569 0.169-0.875 0.256-1.975 0.15-2.875-0.288-1.037-0.5-1.781-1.356-2.188-2.531-0.213-0.6-0.194-1.906 0.025-2.488l0.069-0.169h2.175l0.419 0.587zM22.75 18.731c0 0.094-0.55 0.738-1.025 1.194-1.706 1.637-4.131 2.488-6.431 2.262-1.975-0.194-3.65-0.956-5.056-2.3-0.444-0.425-0.988-1.063-0.988-1.156 0-0.025 3.037-0.044 6.75-0.044s6.75 0.019 6.75 0.044zM26.831 25.606c0.475 1.063 0.856 1.988 0.856 2.063 0 0.137-0.15 0.331-0.262 0.331-0.031 0-1.012-0.306-2.169-0.688-1.163-0.375-2.2-0.688-2.306-0.688-0.119 0-0.244 0.050-0.306 0.119-0.050 0.069-0.512 1.044-1.019 2.175-0.8 1.788-0.938 2.056-1.087 2.113-0.131 0.044-0.188 0.031-0.281-0.063-0.1-0.106-1.781-3.794-1.738-3.813 0.006 0 0.175-0.113 0.369-0.244 0.469-0.313 1.225-1.106 1.481-1.556 0.113-0.194 0.225-0.356 0.244-0.356 0.025 0 0.2 0.044 0.387 0.094s0.6 0.113 0.906 0.131c1.319 0.094 2.719-0.4 3.75-1.313 0.137-0.119 0.269-0.219 0.288-0.225 0.019 0 0.419 0.863 0.887 1.919z"></path>
<path d="M8.275 11.375c-0.162 0.063-0.338 0.3-0.338 0.444 0 0.056 0.269 0.488 0.6 0.963 0.325 0.469 0.613 0.894 0.625 0.938 0.019 0.044-0.294 0.537-0.688 1.1-0.419 0.588-0.725 1.088-0.725 1.169 0 0.35 0.319 0.581 0.619 0.45 0.1-0.038 0.4-0.406 0.775-0.938 0.338-0.481 0.631-0.875 0.656-0.875s0.269 0.325 0.544 0.725c0.625 0.9 0.775 1.075 0.975 1.119 0.119 0.031 0.213 0 0.338-0.113 0.306-0.262 0.256-0.406-0.556-1.556l-0.731-1.044 0.625-0.887c0.669-0.938 0.731-1.106 0.519-1.375-0.137-0.162-0.444-0.188-0.613-0.050-0.056 0.044-0.325 0.4-0.6 0.794l-0.5 0.7-0.106-0.137c-0.063-0.081-0.3-0.419-0.531-0.756-0.25-0.356-0.494-0.637-0.581-0.675-0.081-0.031-0.156-0.056-0.162-0.050-0.006 0-0.075 0.025-0.144 0.056z"></path>
<path d="M13.081 11.369c-0.075 0.037-0.162 0.119-0.2 0.188-0.044 0.081-0.069 0.906-0.069 2.4 0 2.506-0.012 2.413 0.387 2.512 0.137 0.038 0.206 0.006 0.363-0.144l0.188-0.188v-1.512h0.55c0.394 0 0.613-0.037 0.8-0.119 1.037-0.469 1.331-1.744 0.594-2.581-0.394-0.444-0.75-0.569-1.694-0.594-0.431-0.006-0.844 0.006-0.919 0.037zM14.863 12.419c0.094 0.069 0.206 0.238 0.256 0.369 0.075 0.225 0.075 0.275-0.025 0.481-0.15 0.319-0.369 0.419-0.906 0.419h-0.438v-1.456l0.475 0.031c0.338 0.025 0.519 0.069 0.637 0.156z"></path>
<path d="M21 11.387c-0.306 0.162-0.313 0.231-0.3 2.6l0.019 2.213 0.181 0.156c0.137 0.113 0.219 0.144 0.344 0.113 0.344-0.087 0.375-0.169 0.394-1.012l0.019-0.781 0.769 0.875c0.488 0.556 0.825 0.887 0.925 0.913 0.319 0.081 0.675-0.319 0.544-0.606-0.038-0.075-0.313-0.412-0.606-0.744s-0.538-0.631-0.531-0.656c0-0.025 0.144-0.119 0.325-0.206 0.4-0.2 0.706-0.613 0.806-1.075 0.137-0.675-0.244-1.394-0.9-1.675-0.269-0.119-0.475-0.15-1.081-0.169-0.544-0.019-0.794 0-0.906 0.056zM22.7 12.4c0.35 0.231 0.369 0.669 0.038 0.944-0.163 0.137-0.244 0.156-0.65 0.156h-0.462v-0.581c0-0.325 0.019-0.606 0.050-0.631 0.081-0.088 0.856 0 1.025 0.113z"></path>
<path d="M24.956 11.375c-0.2 0.081-0.35 0.344-0.3 0.512 0.094 0.306 0.206 0.363 0.7 0.363h0.456v1.944c0 1.25 0.025 1.981 0.069 2.063 0.156 0.3 0.656 0.275 0.8-0.044 0.044-0.106 0.069-0.775 0.069-2.056v-1.906h0.456c0.369 0 0.481-0.025 0.563-0.113 0.15-0.169 0.137-0.531-0.025-0.675-0.119-0.106-0.25-0.119-1.394-0.131-0.688-0.006-1.319 0.012-1.394 0.044z"></path>
<path d="M4.263 11.5c-0.138 0.131-0.138 0.144-0.138 2.438v2.306l0.162 0.125c0.15 0.119 0.25 0.131 1.156 0.131 0.944 0 0.994-0.006 1.156-0.144 0.219-0.194 0.237-0.512 0.031-0.681-0.125-0.094-0.256-0.113-0.856-0.113h-0.713v-1.188h0.644c0.775 0 0.919-0.069 0.919-0.431 0-0.394-0.144-0.469-0.912-0.494l-0.65-0.025v-1.113h0.681c0.375 0 0.731-0.019 0.787-0.037 0.281-0.113 0.3-0.694 0.031-0.838-0.063-0.037-0.575-0.063-1.138-0.063-0.944 0-1.037 0.012-1.162 0.125z"></path>
<path d="M17.219 11.531l-0.156 0.15v2.188c0 1.494 0.025 2.237 0.069 2.344 0.119 0.256 0.331 0.3 1.4 0.275 0.944-0.019 0.988-0.025 1.1-0.169 0.156-0.188 0.15-0.475-0.006-0.631-0.113-0.113-0.206-0.125-0.875-0.125h-0.75v-1.188h0.688c0.619 0 0.694-0.012 0.813-0.137 0.156-0.169 0.163-0.431 0.006-0.619-0.113-0.137-0.175-0.15-0.813-0.169l-0.694-0.025v-1.113h0.712c0.619 0 0.731-0.019 0.875-0.131 0.119-0.094 0.163-0.188 0.163-0.338s-0.044-0.244-0.163-0.338c-0.156-0.119-0.25-0.131-1.194-0.131-1.006 0-1.025 0-1.175 0.156z"></path>
</symbol>
<symbol id="icon-cfdfdfd3" viewBox="0 0 32 32" fill="#458ff6">
<path d="M12.406 0.319c-3.25 0.475-5.481 2.706-5.075 5.069 0.156 0.912 0.675 1.794 1.406 2.406 0.194 0.162 0.363 0.3 0.369 0.3s-0.181 0.694-0.425 1.531c-0.238 0.844-0.431 1.619-0.431 1.731 0 0.225 0.238 0.456 0.463 0.456 0.075 0 1-0.537 2.063-1.188l1.925-1.188h0.781c0.425 0 1.069-0.044 1.431-0.1l0.65-0.106 0.306 0.287c0.45 0.425 1.188 0.881 1.775 1.106 0.938 0.363 1.369 0.45 2.481 0.481l1.031 0.037 1.694 1.050c0.931 0.581 1.744 1.056 1.813 1.056s0.188-0.044 0.262-0.1c0.288-0.2 0.281-0.3-0.137-1.813l-0.394-1.412 0.481-0.481c0.581-0.581 0.944-1.25 1.063-1.956 0.337-1.969-1.419-3.925-4.025-4.5-0.431-0.094-0.825-0.131-1.606-0.138l-1.038-0.006-0.25-0.313c-0.9-1.131-2.406-1.925-4.156-2.181-0.706-0.106-1.844-0.119-2.456-0.031zM14.75 1.319c1.719 0.244 3.269 1.238 3.856 2.462 0.231 0.481 0.238 0.525 0.238 1.156 0 0.612-0.012 0.688-0.2 1.069-0.756 1.531-3.231 2.612-5.644 2.469l-0.656-0.044-1.438 0.906c-0.787 0.494-1.45 0.894-1.463 0.875-0.025-0.025 0.094-0.475 0.406-1.519 0.137-0.456 0.206-0.781 0.181-0.888-0.025-0.119-0.175-0.275-0.481-0.494-1.006-0.756-1.55-1.875-1.369-2.85 0.256-1.362 1.55-2.5 3.412-3 1.019-0.269 1.95-0.313 3.156-0.144zM21.375 3.906c1.606 0.263 2.919 1.050 3.406 2.056 0.231 0.475 0.288 1.188 0.125 1.675-0.156 0.475-0.5 0.956-0.931 1.306-0.594 0.469-0.6 0.481-0.6 0.688 0 0.106 0.113 0.588 0.256 1.069 0.137 0.481 0.244 0.881 0.231 0.887-0.006 0.012-0.438-0.244-0.956-0.569-1.644-1.031-1.444-0.95-2.194-0.906-1.394 0.069-2.831-0.306-3.756-0.981-0.15-0.106-0.269-0.213-0.269-0.244 0-0.025 0.163-0.119 0.363-0.213 1.206-0.569 2.2-1.575 2.619-2.656 0.137-0.356 0.169-0.531 0.169-1.081 0.006-0.362-0.019-0.763-0.044-0.894l-0.050-0.231h0.519c0.288 0 0.788 0.044 1.113 0.094z"></path>
<path d="M8.375 13.469c-1.938 0.438-3.3 2.363-3 4.244 0.269 1.694 1.5 2.975 3.137 3.262 3.075 0.544 5.456-2.65 4.069-5.469-0.281-0.563-0.988-1.319-1.519-1.613-0.794-0.444-1.856-0.613-2.688-0.425zM10.381 14.631c0.619 0.3 1.063 0.738 1.363 1.363 0.219 0.463 0.225 0.5 0.225 1.194 0 0.7-0.006 0.731-0.231 1.206-0.869 1.813-3.181 2.231-4.588 0.831-1.281-1.288-1.056-3.431 0.475-4.412 0.519-0.331 0.938-0.438 1.656-0.419 0.569 0.012 0.669 0.037 1.1 0.238z"></path>
<path d="M22.188 13.438c-1.8 0.338-3.188 1.969-3.188 3.75 0 1.175 0.637 2.413 1.6 3.1 1.238 0.881 2.712 0.988 4.050 0.288 0.844-0.444 1.587-1.369 1.869-2.319 0.156-0.544 0.169-1.456 0.019-2.006-0.337-1.25-1.313-2.281-2.519-2.669-0.538-0.169-1.363-0.238-1.831-0.144zM23.681 14.494c2.044 0.637 2.681 3.213 1.169 4.731-1.294 1.288-3.419 1.056-4.419-0.488-0.494-0.769-0.575-1.863-0.2-2.688 0.206-0.45 0.613-0.925 1.025-1.213 0.637-0.438 1.65-0.588 2.425-0.344z"></path>
<path d="M7.356 22.375c-1.819 0.281-3.6 1.225-4.769 2.525-0.462 0.512-1.094 1.462-1.363 2.044-0.525 1.156-0.725 2.163-0.725 3.631v0.981l0.162 0.125 0.169 0.131h30.337l0.169-0.131 0.163-0.125v-0.981c0-1.094-0.1-1.856-0.35-2.644-0.794-2.506-2.825-4.531-5.288-5.269-1.012-0.3-1.181-0.319-2.988-0.319-1.856 0-2.156 0.031-3.163 0.35-1.169 0.369-2.238 1.025-3.169 1.944l-0.556 0.538-0.412-0.438c-1.019-1.081-2.431-1.875-4.012-2.25-0.45-0.106-0.787-0.131-2.188-0.144-0.912-0.012-1.819 0-2.019 0.031zM11.188 23.406c2.162 0.438 3.963 1.819 4.938 3.775 0.475 0.944 0.75 2.094 0.75 3.144v0.488h-15.456l0.044-0.725c0.081-1.425 0.456-2.6 1.181-3.681 1.144-1.706 2.981-2.831 5.044-3.087 0.681-0.087 2.931-0.031 3.5 0.087zM24.85 23.4c1.4 0.288 2.625 0.944 3.625 1.938 1.281 1.288 1.956 2.837 2.063 4.75l0.044 0.725h-12.769v-0.613c0-1.212-0.306-2.406-0.9-3.556l-0.337-0.637 0.462-0.5c1.181-1.269 2.794-2.050 4.587-2.219 0.587-0.050 2.788 0.019 3.225 0.113z"></path>
</symbol>
<symbol id="icon-price4" viewBox="0 0 32 32" fill="#458ff6">
<path d="M18.931 0.156c-0.744 0.119-1.481 0.313-2.181 0.575-4.031 1.506-6.887 5.35-7.106 9.563l-0.037 0.706h0.875l0.037-0.738c0.169-3.15 2.063-6.213 4.887-7.919 2.9-1.75 6.644-1.894 9.669-0.375 3.038 1.531 5.081 4.4 5.525 7.75 0.125 0.938 0.081 2.35-0.1 3.244-0.731 3.656-3.369 6.594-6.9 7.694l-0.55 0.175 0.038 0.188c0.094 0.456 0.169 0.663 0.244 0.637 1.244-0.381 1.906-0.656 2.688-1.106 2.575-1.475 4.488-3.975 5.206-6.806 1.538-6.081-2.275-12.169-8.444-13.494-0.813-0.175-3.019-0.231-3.85-0.094z"></path>
<path d="M19.625 2.563c-1.925 0.269-3.556 1.038-4.881 2.3-1.6 1.519-2.475 3.419-2.65 5.744-0.025 0.319-0.050 0.581-0.056 0.581 0 0-0.188-0.056-0.412-0.125s-0.45-0.125-0.506-0.125c-0.3 0-0.331 0.1-1.65 4.688-0.706 2.456-1.306 4.512-1.331 4.563-0.069 0.113-0.481 0.35-0.719 0.406l-0.169 0.044v-0.375c0-0.281-0.031-0.413-0.131-0.538l-0.125-0.163h-3.156c-3.069 0-3.156 0.006-3.275 0.125-0.125 0.125-0.125 0.206-0.125 6.056 0 5.744 0.006 5.938 0.119 6.075l0.119 0.15 2.994 0.019c1.963 0.012 3.063 0 3.213-0.044 0.281-0.081 0.369-0.269 0.369-0.756 0-0.431 0.025-0.444 0.594-0.288 0.438 0.113 0.762 0.294 1.119 0.606l0.313 0.275 4.938 0.019c5.1 0.019 5.581 0 6.025-0.231 0.3-0.156 0.65-0.531 0.831-0.881 0.288-0.575 0.212-1.556-0.163-2.063l-0.156-0.212 0.244-0.256c0.644-0.656 0.788-1.669 0.356-2.438l-0.144-0.269 0.319-0.206c0.938-0.619 1.106-2.038 0.356-2.981l-0.181-0.231 0.212-0.244c0.244-0.281 0.462-0.913 0.462-1.313 0-0.137-0.069-0.444-0.144-0.669l-0.144-0.419 0.569-0.137c1.544-0.381 2.894-1.163 4.031-2.35 1.113-1.156 1.769-2.356 2.175-3.956 0.15-0.6 0.163-0.775 0.169-1.881 0-0.963-0.025-1.331-0.119-1.75-0.738-3.388-3.313-5.944-6.669-6.625-0.719-0.15-2.012-0.206-2.619-0.125zM22.031 3.531c0.7 0.131 1.219 0.313 1.938 0.662 2.219 1.088 3.8 3.269 4.163 5.744 0.119 0.806 0.044 2.206-0.156 2.95-0.706 2.656-2.688 4.694-5.3 5.45-0.619 0.181-1.519 0.313-1.669 0.25-0.056-0.025-0.575-0.063-1.163-0.087-0.906-0.044-1.137-0.075-1.556-0.212-1.131-0.381-2.075-0.938-2.925-1.719l-0.481-0.444 0.037-0.675c0.025-0.512 0.012-0.794-0.069-1.15-0.206-0.925-0.8-1.875-1.5-2.419-0.419-0.325-0.456-0.488-0.356-1.519 0.175-1.781 0.85-3.281 2.037-4.537 1.331-1.406 2.831-2.156 4.844-2.413 0.394-0.050 1.65 0.019 2.156 0.119zM12.25 12.231c0.831 0.4 1.475 1.206 1.719 2.144 0.188 0.719 0.119 1.244-0.406 3.050l-0.456 1.581 0.25 0.337 3.681 0.031c2.569 0.019 3.731 0.050 3.837 0.1 0.325 0.15 0.625 0.637 0.625 1.012 0 0.469-0.344 0.962-0.75 1.075-0.119 0.031-0.856 0.063-1.637 0.063h-1.425v0.875h1.5c1.375 0 1.525 0.012 1.744 0.125 0.675 0.344 0.738 1.431 0.113 1.9-0.169 0.125-0.262 0.131-1.769 0.15l-1.587 0.019v0.856l1.144 0.025c1.012 0.019 1.163 0.031 1.356 0.15 0.587 0.344 0.719 1.181 0.269 1.719-0.281 0.331-0.456 0.369-1.675 0.369h-1.094v0.875h0.925c0.762 0 0.962 0.025 1.175 0.119 0.369 0.169 0.55 0.45 0.575 0.913 0.031 0.488-0.156 0.869-0.519 1.056-0.244 0.131-0.325 0.131-5.231 0.15l-4.981 0.012-0.206-0.175c-0.488-0.425-1.131-0.712-1.813-0.813l-0.331-0.044v-8.369l0.281-0.069c0.35-0.094 0.856-0.35 1.112-0.563 0.106-0.087 0.238-0.281 0.287-0.425s0.606-2.038 1.225-4.2c0.625-2.169 1.162-4.031 1.194-4.144 0.063-0.188 0.088-0.206 0.238-0.175 0.088 0.025 0.375 0.144 0.631 0.269zM15.156 17.544c0.206 0.175 0.6 0.462 0.875 0.637l0.5 0.319h-1.169c-0.65 0-1.175-0.019-1.175-0.050 0-0.025 0.088-0.337 0.188-0.7 0.106-0.363 0.188-0.669 0.188-0.681s0.050 0.019 0.113 0.069c0.056 0.050 0.275 0.231 0.481 0.406zM6.362 25.762l-0.019 5.331-2.513 0.019-2.519 0.012v-10.688h5.063l-0.013 5.325z"></path>
<path d="M20.125 6.056v0.862l-0.281 0.031c-0.156 0.019-0.425 0.106-0.606 0.194-0.975 0.475-1.481 1.6-1.212 2.669 0.262 1.050 1.006 1.519 2.581 1.619 0.663 0.044 0.8 0.075 1.050 0.219 0.781 0.463 0.925 1.6 0.269 2.206-0.325 0.306-0.65 0.394-1.475 0.394-0.844 0-1.063-0.056-1.337-0.35-0.219-0.238-0.3-0.463-0.3-0.844v-0.306h-0.894l0.031 0.45c0.069 1.075 0.769 1.813 1.813 1.906l0.356 0.037 0.038 1.7 0.844 0.038v-1.731l0.363-0.075c0.475-0.1 0.837-0.287 1.169-0.606 1.131-1.106 0.813-2.988-0.631-3.669-0.325-0.15-0.506-0.188-1.163-0.231-0.95-0.069-1.256-0.156-1.556-0.444-0.575-0.544-0.431-1.644 0.269-2.112 0.25-0.162 0.3-0.169 1.181-0.188 0.775-0.019 0.962-0.006 1.15 0.088 0.331 0.156 0.538 0.5 0.575 0.956l0.038 0.381h0.875l-0.044-0.45c-0.1-1.075-0.75-1.763-1.75-1.856l-0.444-0.037-0.019-0.862-0.019-0.856h-0.869v0.869z"></path>
</symbol>
<symbol id="icon-support5" viewBox="0 0 32 32" fill="#458ff6">
<path d="M15.094 0.037c-0.488 0.050-1.494 0.287-2.025 0.475-2.9 1.025-5.056 3.494-5.694 6.537-0.088 0.412-0.138 0.95-0.162 1.669-0.019 0.613-0.069 1.256-0.131 1.519-0.069 0.319-0.088 0.65-0.069 1.1 0.025 0.55 0.056 0.7 0.219 1.044 0.375 0.806 1 1.219 1.994 1.331l0.569 0.063 0.137 0.469c0.369 1.262 1.344 2.625 2.369 3.319l0.319 0.219 0.006 0.906v0.913l-1.137 0.331c-3.044 0.894-4.425 1.5-5.675 2.488-0.875 0.694-1.506 1.606-1.819 2.644-0.138 0.456-0.144 0.563-0.169 3.506l-0.019 3.044 0.156 0.175 0.15 0.181h2.463l0.15-0.175c0.206-0.238 0.206-0.6 0-0.837-0.15-0.169-0.169-0.175-0.906-0.194l-0.756-0.025v-2.381c0-2.619 0.025-2.85 0.375-3.556 0.625-1.262 1.969-2.2 4.294-3.006l0.825-0.288 0.756 1.481c0.419 0.813 0.825 1.55 0.906 1.631 0.238 0.244 0.55 0.212 1.019-0.113 0.219-0.144 0.406-0.256 0.412-0.244 0.044 0.056 0.55 2.038 0.55 2.144 0 0.069-0.213 1.063-0.475 2.206s-0.475 2.094-0.475 2.113c0 0.012-0.356 0.025-0.787 0.025h-0.787l-0.213 0.212c-0.287 0.288-0.287 0.538 0 0.825l0.213 0.212 16.212-0.031 0.15-0.181 0.156-0.175-0.019-3.044c-0.025-2.944-0.031-3.050-0.169-3.506-0.313-1.038-0.944-1.95-1.819-2.644-1.262-1-2.669-1.613-5.762-2.512l-1.050-0.306v-0.919c0-0.7 0.019-0.925 0.081-0.95 0.194-0.075 1.050-0.819 1.3-1.131l0.275-0.337 1.188-0.031c0.75-0.019 1.281-0.056 1.438-0.113 0.144-0.050 0.394-0.231 0.606-0.431 0.494-0.494 0.55-0.713 0.55-2.162 0-0.813 0.025-1.25 0.094-1.506 0.119-0.45 0.119-1.325 0.006-1.769-0.044-0.194-0.1-0.85-0.119-1.469-0.025-0.769-0.081-1.313-0.169-1.731-0.731-3.475-3.387-6.131-6.863-6.862-0.594-0.125-2.1-0.206-2.669-0.15zM17.5 1.4c0.969 0.212 1.975 0.637 2.781 1.181 0.525 0.362 1.363 1.175 1.794 1.756 0.481 0.644 1.006 1.719 1.2 2.463 0.15 0.569 0.331 1.8 0.275 1.863-0.019 0.012-0.106 0-0.188-0.031-0.087-0.031-0.356-0.081-0.6-0.1l-0.438-0.044-0.038-0.369c-0.075-0.625-0.281-1.313-0.6-1.963-0.837-1.737-2.344-2.944-4.25-3.425-0.75-0.188-2.119-0.188-2.875 0-0.731 0.188-1.469 0.506-2.081 0.913-0.575 0.381-1.387 1.194-1.75 1.75-0.531 0.794-0.919 1.838-1.019 2.719l-0.037 0.375-0.438 0.044c-0.244 0.019-0.512 0.069-0.6 0.1-0.081 0.031-0.169 0.044-0.188 0.031-0.056-0.063 0.125-1.294 0.275-1.862 0.194-0.744 0.719-1.819 1.2-2.462 1.262-1.7 3.006-2.712 5.231-3.050 0.381-0.056 1.887 0.019 2.344 0.113zM17.212 3.969c1.281 0.344 2.3 1.056 3 2.112 0.538 0.813 0.881 1.844 0.837 2.5l-0.019 0.294-0.625-0.375c-0.744-0.444-1.337-0.675-1.931-0.75-0.731-0.094-1.219 0.013-2.756 0.594-2.125 0.8-2.819 0.981-4.138 1.069l-0.644 0.044v-0.619c0-2.119 1.35-4.013 3.375-4.725 0.863-0.306 2.069-0.369 2.9-0.144zM18.919 9.137c0.288 0.106 1 0.512 1.881 1.069l0.262 0.169v1.35c0 1.531-0.094 2.1-0.456 2.838l-0.2 0.406-2.356 0.031c-2.275 0.031-2.363 0.037-2.488 0.162-0.181 0.181-0.231 0.544-0.094 0.75 0.2 0.306 0.381 0.337 2.2 0.337l1.675 0.006-0.188 0.156c-0.35 0.294-1.019 0.65-1.6 0.85-0.563 0.194-0.625 0.206-1.556 0.206s-0.994-0.012-1.563-0.206c-1.725-0.594-2.963-1.938-3.375-3.656-0.1-0.419-0.125-0.738-0.125-1.713v-1.194l0.675-0.044c1.444-0.088 2.4-0.325 4.437-1.106 0.644-0.244 1.325-0.481 1.512-0.525 0.413-0.094 0.913-0.056 1.356 0.113zM9.675 11.088c0.006 0.75-0.012 1.338-0.044 1.369-0.094 0.094-0.675-0.019-0.887-0.162-0.406-0.275-0.463-0.419-0.463-1.169 0-0.588 0.019-0.7 0.131-0.85 0.256-0.35 0.631-0.531 1.056-0.506l0.188 0.012 0.019 1.306zM23.188 9.906c0.45 0.231 0.606 0.662 0.55 1.481-0.038 0.481-0.137 0.675-0.488 0.906-0.156 0.113-0.294 0.144-0.569 0.144h-0.369v-1.3c0-0.719 0.019-1.325 0.050-1.35 0.063-0.069 0.625 0.012 0.825 0.119zM23.563 14.088c0 0.469-0.019 0.55-0.15 0.706-0.15 0.169-0.169 0.175-0.887 0.194-0.688 0.025-0.725 0.019-0.681-0.094 0.025-0.063 0.125-0.35 0.219-0.644l0.169-0.531 0.569-0.031c0.313-0.019 0.587-0.056 0.613-0.081 0.119-0.113 0.15-0.006 0.15 0.481zM14.456 18.575c0.431 0.119 0.675 0.137 1.544 0.137s1.113-0.019 1.544-0.137c0.281-0.075 0.525-0.137 0.544-0.137s0.038 0.288 0.038 0.637l-0.006 0.644-2.113 1.425-2.125-1.425-0.006-0.644c0-0.35 0.019-0.637 0.037-0.637s0.262 0.063 0.544 0.137zM14.037 21.319c0.463 0.313 0.838 0.575 0.825 0.587-0.175 0.137-2 1.35-2.019 1.337-0.050-0.063-1.037-2.075-1.019-2.087 0.025-0.025 1.25-0.4 1.319-0.4 0.031-0.006 0.431 0.25 0.894 0.563zM19.525 20.944c0.35 0.106 0.637 0.2 0.65 0.212 0.019 0.012-0.969 2.025-1.019 2.081-0.012 0.012-0.475-0.281-1.025-0.663l-1-0.681 0.825-0.569c0.456-0.313 0.85-0.569 0.881-0.575 0.031 0 0.337 0.087 0.688 0.194zM23.688 22.356c1.481 0.688 2.363 1.438 2.869 2.438 0.356 0.712 0.381 0.931 0.381 3.563v2.394h-4.094c-2.25 0-4.094-0.012-4.094-0.038 0-0.019-0.212-0.962-0.475-2.106s-0.475-2.131-0.475-2.2c0-0.113 0.506-2.094 0.55-2.144 0.006-0.012 0.194 0.1 0.413 0.244 0.469 0.325 0.781 0.356 1.019 0.113 0.081-0.081 0.488-0.819 0.906-1.631l0.756-1.481 0.825 0.288c0.456 0.156 1.094 0.406 1.419 0.563zM16.625 23.063c0.306 0.206 0.569 0.394 0.581 0.425 0.019 0.025-0.1 0.544-0.256 1.156l-0.294 1.106h-1.313l-0.269-1.019c-0.15-0.563-0.275-1.075-0.281-1.137-0.006-0.075 0.169-0.238 0.55-0.506 0.313-0.219 0.6-0.394 0.644-0.4 0.044 0 0.331 0.169 0.637 0.375zM16.625 27.012c0 0.012 0.194 0.85 0.425 1.863l0.425 1.844-0.738 0.019c-0.406 0.006-1.069 0.006-1.475 0l-0.738-0.019 0.425-1.844c0.231-1.012 0.425-1.85 0.425-1.863 0-0.006 0.281-0.012 0.625-0.012s0.625 0.006 0.625 0.012z"></path>
<path d="M21.006 27.725c-0.081 0.056-0.181 0.2-0.231 0.313-0.075 0.181-0.075 0.244 0 0.425 0.169 0.413 0.181 0.413 2.144 0.413h1.769l0.2-0.181c0.169-0.15 0.206-0.225 0.206-0.444s-0.038-0.294-0.206-0.444l-0.2-0.181h-1.769c-1.531 0-1.788 0.012-1.913 0.1z"></path>
<path d="M8.675 30.931c-0.169 0.15-0.206 0.225-0.206 0.444s0.037 0.294 0.206 0.444c0.225 0.2 0.431 0.225 0.7 0.087 0.219-0.113 0.313-0.269 0.313-0.531s-0.094-0.419-0.313-0.531c-0.269-0.137-0.475-0.113-0.7 0.087z"></path>
</symbol>
<symbol id="icon-Visit-6" viewBox="0 0 32 32" fill="#458ff6">
<path d="M22.356 0.094c-1.856 0.306-3.438 1.119-4.744 2.45-1.212 1.237-2.025 2.875-2.3 4.612-0.1 0.638-0.088 2.031 0.031 2.688 0.2 1.125 0.644 2.231 1.3 3.206l0.344 0.512-13.281 0.031-0.212 0.162c-0.175 0.137-0.487 0.725-1.837 3.469l-1.625 3.306-0.019 4.038-0.019 4.031 0.144 0.212c0.319 0.462 0.319 0.462 2.056 0.5l1.563 0.031 0.144 0.356c0.206 0.506 0.488 0.925 0.869 1.281 1.775 1.675 4.637 1.188 5.719-0.975 0.144-0.288 0.262-0.563 0.262-0.606 0-0.075 0.819-0.087 5.219-0.087 4.919 0 5.225 0.006 5.256 0.106 0.163 0.512 0.525 1.087 0.925 1.494 0.669 0.669 1.381 0.994 2.319 1.063 1.444 0.106 2.813-0.681 3.462-1.981 0.144-0.281 0.256-0.544 0.256-0.594 0-0.063 0.313-0.087 1.587-0.1 1.75-0.019 1.744-0.019 2.063-0.45 0.125-0.169 0.131-0.256 0.15-2.794 0.012-2.356 0.006-2.644-0.087-2.844-0.144-0.306-1.012-1.175-1.613-1.619-0.925-0.681-2.188-1.256-3.35-1.531-0.325-0.075-0.625-0.15-0.663-0.156-0.044-0.012-0.219-0.269-0.4-0.563-0.413-0.681-1.119-1.631-1.581-2.131-0.194-0.212-0.356-0.4-0.356-0.425 0-0.019 0.125-0.038 0.275-0.038 0.75 0 2.212-0.4 3.113-0.85 1.206-0.6 2.494-1.719 3.188-2.775 1.019-1.55 1.45-2.956 1.444-4.75 0-1.088-0.119-1.825-0.462-2.794-0.819-2.313-2.663-4.181-4.994-5.063-1.163-0.444-2.938-0.625-4.144-0.425zM25.2 2.081c2.087 0.544 3.769 2.056 4.494 4.044 0.313 0.862 0.387 1.313 0.387 2.313 0 1.137-0.163 1.825-0.669 2.844-0.65 1.306-1.637 2.294-2.944 2.938-0.788 0.387-1.469 0.581-2.294 0.65-1.944 0.156-3.712-0.475-5.1-1.831-1.994-1.938-2.538-4.9-1.363-7.381 0.15-0.325 0.369-0.719 0.481-0.888 0.988-1.456 2.538-2.469 4.306-2.8 0.706-0.137 1.938-0.081 2.7 0.112zM11.438 17.625v2.188h-4.469c-2.456 0-4.469-0.012-4.469-0.025s0.481-0.994 1.069-2.188l1.069-2.162h6.8v2.187zM19.219 15.619c1.581 0.744 3.475 2.381 4.525 3.906l0.2 0.288h-10.631v-4.375h5.531l0.375 0.181zM26.106 21.806c1.438 0.281 2.725 0.906 3.625 1.775l0.394 0.375v3.481h-1.913l-0.106-0.325c-0.325-1.025-1.381-1.981-2.512-2.269-0.462-0.119-1.331-0.119-1.762-0.006-1.137 0.306-2.081 1.125-2.5 2.175l-0.163 0.425h-10.356l-0.075-0.175c-0.287-0.712-0.475-1.006-0.919-1.456-0.781-0.781-1.594-1.094-2.719-1.044-0.987 0.044-1.706 0.363-2.419 1.075-0.344 0.35-0.781 1.063-0.881 1.462-0.038 0.137-0.056 0.137-0.981 0.137h-0.944v-2.831c0-1.563 0.019-2.856 0.044-2.875 0.019-0.025 5.338-0.044 11.806-0.044 11.313 0 11.794 0.006 12.381 0.119zM7.888 26.725c1.206 0.406 1.513 2.025 0.556 2.919s-2.487 0.456-2.856-0.813c-0.237-0.825 0.188-1.719 1-2.087 0.319-0.144 0.912-0.156 1.3-0.019zM25.469 26.781c1.113 0.544 1.313 2.069 0.375 2.894-1.063 0.931-2.712 0.288-2.881-1.125-0.081-0.719 0.331-1.462 1.006-1.781 0.262-0.125 0.387-0.144 0.781-0.131 0.3 0.019 0.556 0.069 0.719 0.144z"></path>
<path d="M23.137 3.875c-0.113 0.069-0.256 0.213-0.325 0.325-0.119 0.194-0.125 0.319-0.125 1.987v1.781l-1 1c-1.081 1.075-1.244 1.319-1.163 1.75 0.056 0.3 0.369 0.637 0.669 0.725 0.481 0.15 0.65 0.044 1.919-1.219 0.631-0.619 1.206-1.231 1.281-1.35 0.131-0.213 0.137-0.269 0.137-2.344 0-2.1 0-2.125-0.144-2.35-0.256-0.413-0.837-0.556-1.25-0.306z"></path>
<path d="M14.144 23.625c-0.806 0.188-1 1.256-0.313 1.681 0.2 0.125 0.306 0.131 1.537 0.131 1.050 0 1.362-0.019 1.506-0.094 0.744-0.387 0.606-1.488-0.219-1.712-0.281-0.075-2.2-0.081-2.512-0.006z"></path>
<path d="M4.25 4.8c-0.313 0.156-0.5 0.469-0.5 0.825s0.188 0.669 0.5 0.831c0.2 0.1 0.469 0.106 3.45 0.094 3.15-0.019 3.231-0.025 3.4-0.15 0.313-0.231 0.425-0.438 0.425-0.775 0-0.35-0.125-0.569-0.463-0.8l-0.206-0.138h-3.194c-2.919 0-3.213 0.013-3.412 0.112z"></path>
<path d="M1.75 9.175c-0.669 0.331-0.669 1.313 0 1.656 0.2 0.1 0.469 0.106 3.45 0.094 3.15-0.019 3.231-0.025 3.4-0.15 0.313-0.231 0.425-0.438 0.425-0.775 0-0.35-0.125-0.569-0.463-0.8l-0.206-0.137h-3.194c-2.919 0-3.212 0.012-3.413 0.113z"></path>
</symbol>
<symbol id="icon-close1" viewBox="0 0 32 32" fill="#f5f5f5" >
<path d="M2.356 0.063c-1.106 0.188-2.106 1.212-2.294 2.35-0.081 0.5-0.081 26.675 0 27.175 0.188 1.169 1.181 2.163 2.35 2.35 0.5 0.081 26.675 0.081 27.175 0 1.169-0.188 2.163-1.181 2.35-2.35 0.081-0.5 0.081-26.675 0-27.175-0.188-1.169-1.181-2.163-2.35-2.35-0.45-0.075-26.794-0.069-27.231 0zM25.469 8.1c0.119 0.050 0.481 0.375 0.806 0.713l0.6 0.619v0.662l-6.387 6.394c-3.519 3.519-6.506 6.475-6.644 6.563-0.219 0.15-0.313 0.169-0.75 0.169-0.406 0-0.537-0.025-0.719-0.137-0.119-0.075-1.8-1.719-3.738-3.656l-3.513-3.525v-0.281c0-0.219 0.044-0.35 0.181-0.531 0.269-0.363 1.087-1.137 1.294-1.213 0.444-0.169 0.412-0.2 3.556 2.944l2.938 2.931 5.781-5.781c3.181-3.181 5.863-5.825 5.969-5.875 0.244-0.119 0.369-0.119 0.625 0.006z"></path>
</symbol>
<symbol id="icon-close2" viewBox="0 0 32 32" fill="#f5f5f5">
<path d="M5.374 0.038c-0.703 0.073-1.391 0.278-2.052 0.605-0.612 0.306-1.030 0.612-1.548 1.13-0.518 0.515-0.821 0.932-1.13 1.548-0.341 0.678-0.529 1.332-0.605 2.101-0.052 0.501-0.052 20.654 0 21.155 0.077 0.769 0.264 1.423 0.605 2.101 0.31 0.619 0.612 1.033 1.13 1.548 0.936 0.936 1.823 1.395 3.27 1.697 0.233 0.049 1.346 0.056 10.678 0.066 7.318 0.010 10.536 0.003 10.814-0.024 0.793-0.077 1.447-0.261 2.143-0.609 0.616-0.31 1.033-0.612 1.548-1.13 0.518-0.515 0.821-0.932 1.13-1.548 0.341-0.678 0.529-1.332 0.605-2.101 0.052-0.501 0.052-20.654 0-21.155-0.077-0.762-0.268-1.423-0.605-2.101-0.31-0.616-0.612-1.033-1.13-1.548-0.515-0.518-0.932-0.821-1.548-1.13-0.678-0.341-1.332-0.529-2.101-0.605-0.435-0.045-20.776-0.045-21.203 0zM26.483 4.052c0.522 0.136 1.040 0.546 1.283 1.012 0.254 0.49 0.233-0.473 0.233 10.936 0 11.416 0.021 10.445-0.237 10.936-0.167 0.323-0.504 0.661-0.828 0.828-0.49 0.257 0.48 0.237-10.936 0.237s-10.445 0.021-10.936-0.237c-0.323-0.167-0.661-0.504-0.828-0.828-0.257-0.49-0.237 0.477-0.237-10.918 0-11.384-0.017-10.47 0.237-10.953 0.247-0.473 0.769-0.887 1.28-1.009 0.174-0.042 1.739-0.049 10.483-0.052 9.117-0.003 10.303 0.003 10.483 0.049z"></path>
<path d="M21.791 9.837c-0.539 0.16-0.362 0-4.303 3.934l-3.645 3.635-1.537-1.53c-1.377-1.367-1.565-1.541-1.767-1.638-0.313-0.153-0.605-0.219-0.939-0.219-1.308 0-2.24 1.207-1.917 2.477 0.094 0.369 0.212 0.581 0.47 0.852 0.807 0.852 4.501 4.494 4.654 4.591 0.56 0.355 1.336 0.376 1.986 0.056 0.24-0.118 0.445-0.317 4.706-4.581 4.153-4.153 4.463-4.473 4.581-4.703 0.567-1.103 0.049-2.445-1.089-2.835-0.313-0.108-0.908-0.125-1.2-0.038z"></path>
</symbol>
<symbol id="icon-483326" viewBox="0 0 32 32">
<path d="M2.056 0.1c-0.919 0.281-1.688 1.056-1.962 1.981-0.081 0.275-0.094 2-0.094 13.919 0 14.875-0.025 13.85 0.356 14.538 0.219 0.394 0.713 0.887 1.106 1.106 0.688 0.381-0.337 0.356 14.537 0.356s13.85 0.025 14.538-0.356c0.394-0.219 0.887-0.712 1.106-1.106 0.381-0.688 0.356 0.337 0.356-14.538 0-11.919-0.012-13.644-0.094-13.919-0.281-0.938-1.050-1.706-1.988-1.988-0.462-0.138-27.413-0.131-27.863 0.006zM26.131 8.738c0.738 0.738 0.844 0.95 0.663 1.3-0.144 0.262-12.85 12.931-13.106 13.063-0.294 0.15-0.894 0.15-1.188 0-0.256-0.131-7.15-6.988-7.294-7.25-0.181-0.35-0.075-0.563 0.662-1.3 0.675-0.675 0.675-0.675 0.981-0.675h0.3l2.975 2.969 2.969 2.969 11.75-11.75h0.306c0.306 0 0.306 0 0.981 0.675z"></path>
</symbol>
</defs>
</svg>
